<svg id="_034-instagram" data-name="034-instagram" xmlns="http://www.w3.org/2000/svg" width="25.83" height="25.83" viewBox="0 0 25.83 25.83">
  <g id="Group_28" data-name="Group 28">
    <g id="Group_27" data-name="Group 27">
      <path id="Path_22" data-name="Path 22" d="M17.758,0H8.072A8.073,8.073,0,0,0,0,8.072v9.686A8.073,8.073,0,0,0,8.072,25.83h9.686a8.073,8.073,0,0,0,8.072-8.072V8.072A8.073,8.073,0,0,0,17.758,0Zm5.65,17.758a5.657,5.657,0,0,1-5.65,5.65H8.072a5.657,5.657,0,0,1-5.65-5.65V8.072a5.657,5.657,0,0,1,5.65-5.65h9.686a5.657,5.657,0,0,1,5.65,5.65Z" fill="rgba(255,255,255,0.8)"/>
    </g>
  </g>
  <g id="Group_30" data-name="Group 30" transform="translate(6.458 6.458)">
    <g id="Group_29" data-name="Group 29">
      <path id="Path_23" data-name="Path 23" d="M134.458,128a6.458,6.458,0,1,0,6.458,6.458A6.458,6.458,0,0,0,134.458,128Zm0,10.493a4.036,4.036,0,1,1,4.036-4.036A4.042,4.042,0,0,1,134.458,138.493Z" transform="translate(-128 -128)" fill="rgba(255,255,255,0.8)"/>
    </g>
  </g>
  <g id="Group_32" data-name="Group 32" transform="translate(18.996 5.113)">
    <g id="Group_31" data-name="Group 31">
      <ellipse id="Ellipse_1" data-name="Ellipse 1" cx="0.86" cy="0.86" rx="0.86" ry="0.86" fill="rgba(255,255,255,0.8)"/>
    </g>
  </g>
</svg>
