<svg xmlns="http://www.w3.org/2000/svg" width="18.877" height="26.847" viewBox="0 0 18.877 26.847">
  <g id="pin" transform="translate(-76)">
    <g id="Group_35" data-name="Group 35" transform="translate(76)">
      <g id="Group_34" data-name="Group 34">
        <path id="Path_25" data-name="Path 25" d="M85.438,0a9.44,9.44,0,0,0-8.03,14.4L84.9,26.475a.787.787,0,0,0,.668.372h.006a.786.786,0,0,0,.669-.382l7.3-12.191A9.44,9.44,0,0,0,85.438,0ZM92.2,13.466,85.558,24.55,78.746,13.573a7.871,7.871,0,1,1,13.45-.106Z" transform="translate(-76)" fill="#fff"/>
      </g>
    </g>
    <g id="Group_37" data-name="Group 37" transform="translate(80.719 4.719)">
      <g id="Group_36" data-name="Group 36">
        <path id="Path_26" data-name="Path 26" d="M170.719,90a4.719,4.719,0,1,0,4.719,4.719A4.725,4.725,0,0,0,170.719,90Zm0,7.876a3.157,3.157,0,1,1,3.151-3.157A3.159,3.159,0,0,1,170.719,97.876Z" transform="translate(-166 -90)" fill="#fff"/>
      </g>
    </g>
  </g>
</svg>
