<svg xmlns="http://www.w3.org/2000/svg" width="175.992" height="86.36" viewBox="0 0 175.992 86.36">
  <g id="Logo_-_White_Version" data-name="Logo - White Version" transform="translate(0.07)">
    <g id="S" transform="translate(-0.07 30.569)">
      <path id="Path_27" data-name="Path 27" d="M129.618,283.917a6.088,6.088,0,0,1-.244,1.749l-.487,1.514q-.14.506-.489,1.516l-.209.7q-.279,1.012-.974,3.03l-.837,2.173q-.425,1.249-.7,1.873l-.624,1.594q-1.532,3.767-2.02,5.088-.8,1.944-1.01,2.565-.173.426-.312.8c-.092.247-.186.468-.278.679a3.091,3.091,0,0,1-.837,1.321c-.116.078-.208.078-.278,0h-.07c-.069,0-.145-.064-.226-.194s-.169-.2-.261-.2a.481.481,0,0,1-.279-.1,2.19,2.19,0,0,0-.208-.136.359.359,0,0,1-.35-.233,2.932,2.932,0,0,1-.937-2.137,2.054,2.054,0,0,1,.034-.428,1.181,1.181,0,0,1,.07-.468,18.383,18.383,0,0,1,.832-2.568l.384-.971q.835-2.1,1.219-3.146l1.463-3.884c.092-.259.209-.551.348-.874s.254-.6.348-.835q.907-2.565,1.6-4.74a33.563,33.563,0,0,0,1.185-3.808,5.108,5.108,0,0,0,.244-.854q.1-.506.175-.781l.034-.078a.231.231,0,0,0-.07-.156.227.227,0,0,0-.173-.078H125.2a3.278,3.278,0,0,1-.835.078l-.209.078-.209.077a2.03,2.03,0,0,0-.624.156l-.418.078-.418.077q-.278.117-1.183.389a24.581,24.581,0,0,0-2.654,1.01l-.624.234a11.963,11.963,0,0,0-1.532.781l-.767.389-.7.389-.7.389a29.168,29.168,0,0,0-4.666,3.574,23.028,23.028,0,0,0-2.161,2.563,21.285,21.285,0,0,0-1.325,2.016,14.721,14.721,0,0,0-1.044,2.565,8.968,8.968,0,0,0-.418,2.952,2.029,2.029,0,0,0-.034.426,8.455,8.455,0,0,0,.244,1.438,3.572,3.572,0,0,0,.244.971q.211.546.312.816a11.779,11.779,0,0,0,.976,1.553,13.737,13.737,0,0,0,1.811,2.176,27.185,27.185,0,0,0,2.654,2.331q1.461,1.2,2.368,1.864l1.185.937a21.571,21.571,0,0,1,4.179,3.886,14.6,14.6,0,0,1,1.249,1.864,5.013,5.013,0,0,1,.7,1.864,9.126,9.126,0,0,1,.07.937,5.416,5.416,0,0,1-.418,2.1,6.6,6.6,0,0,1-2.3,2.72c-.07.053-.169.136-.3.253a.906.906,0,0,1-.331.214,3.966,3.966,0,0,1-1.185.7q-.624.389-1.873,1.01l-.418.233a2.394,2.394,0,0,0-.679.233q-.4.2-.715.312l-.417.156-.418.156a10.617,10.617,0,0,1-2.654.624h-.835q-.767-.078-2.654-.387a8.4,8.4,0,0,1-3.279-1.873l-.905-.854a.447.447,0,0,0-.139-.233,9.722,9.722,0,0,1-1.185-3.186,1.7,1.7,0,0,0-.034-.35,1.584,1.584,0,0,1-.036-.35l-.034-.781a8.94,8.94,0,0,1,.312-2.331,8.337,8.337,0,0,1,1.873-3.652l.487-.468a1.923,1.923,0,0,1,1.01-.272,2.552,2.552,0,0,1,.523.039,6.794,6.794,0,0,1,.905.312,1.961,1.961,0,0,1,.835.854.156.156,0,0,1,0,.233l-.069.078a1.586,1.586,0,0,0-.593.624c-.156.286-.267.468-.312.545a12.412,12.412,0,0,0-1.249,4.738,7.008,7.008,0,0,0-.034.817,5.806,5.806,0,0,0,.244,1.67.8.8,0,0,0,.036.233.868.868,0,0,1,.034.234,2.854,2.854,0,0,0,.835,1.475,1.708,1.708,0,0,0,.976.543,3.28,3.28,0,0,0,.835.078,9.423,9.423,0,0,0,1.813-.389l.835-.233a24.491,24.491,0,0,0,4.25-2.1l1.046-.7a6.14,6.14,0,0,0,1.822-2.253,5.064,5.064,0,0,0,.417-1.825,3.514,3.514,0,0,0-.348-1.516,5.333,5.333,0,0,0-.974-1.786,12.02,12.02,0,0,0-1.951-1.944l-2.919-2.253a28.273,28.273,0,0,1-2.507-1.942l-1.01-.854a12.518,12.518,0,0,0-1.01-.856,4.9,4.9,0,0,1-.624-.624l-1.324-1.405a13.763,13.763,0,0,1-2.159-3.5,19.255,19.255,0,0,1-.837-2.409,10.433,10.433,0,0,1-.312-2.563,12.552,12.552,0,0,1,.937-4.74,10.978,10.978,0,0,1,.7-1.553,19.494,19.494,0,0,1,1.533-2.487,26.821,26.821,0,0,1,3-3.185q.66-.624,1.6-1.36a7.738,7.738,0,0,1,.624-.506,16.419,16.419,0,0,1,1.864-1.254q1.027-.6,1.272-.757.624-.386,1.873-1.01.835-.387,2.37-1.01.695-.312,2.089-.781l1.046-.234c.092-.025.226-.07.4-.136a1.327,1.327,0,0,1,.436-.1,8,8,0,0,0,1.115-.194,9.368,9.368,0,0,1,1.873-.273,6.725,6.725,0,0,1,4.877,1.788,1.561,1.561,0,0,1,.487.7l.557,1.321a1.488,1.488,0,0,1,.209.781A6,6,0,0,1,129.618,283.917Zm-28.041,33.992h-.069a3.939,3.939,0,0,0-.418,1.321c0-.025.023-.052.07-.078s.069-.052.069-.078A8.051,8.051,0,0,0,101.577,317.909Zm.837,0a.312.312,0,0,0-.07.389c-.139,0-.209.1-.209.312a1.308,1.308,0,0,0-.139.468,1.622,1.622,0,0,0,.348-.781.946.946,0,0,0,.07-.389Zm.5,1.788c.036-.027.053-.052.053-.078a6.99,6.99,0,0,1,.312-1.01q.208-.543.312-.856a3.574,3.574,0,0,0,.279-.624V316.9a1.054,1.054,0,0,0-.175.272,1.036,1.036,0,0,1-.173.272,5.511,5.511,0,0,0-.767,2.331h.07A.53.53,0,0,1,102.918,319.7Zm1.794-29.447a1.89,1.89,0,0,1,.209-.389.194.194,0,0,0,.017-.156,1.477,1.477,0,0,1-.017-.156.362.362,0,0,1-.087.2,1.093,1.093,0,0,0-.122.194,13.937,13.937,0,0,0-1.463,2.175,1.6,1.6,0,0,1-.348.624v.076l.07-.076c.045.076.087.091.122.037a.936.936,0,0,1,.087-.116q.76-1.321,1.532-2.409Zm-.278,2.02a.192.192,0,0,0,.139-.078l1.4-2.02a.337.337,0,0,1,.069-.233,12.234,12.234,0,0,0-1.393,1.71,1.236,1.236,0,0,0-.209.624.824.824,0,0,0-.279.389.276.276,0,0,1-.052.156,1.216,1.216,0,0,0-.087.156.754.754,0,0,0,.415-.7Zm4.179-3.5H108.4q-.907.937-1.741,1.944a8.61,8.61,0,0,0-1.811,2.874,1.718,1.718,0,0,1-.141.368,1.625,1.625,0,0,0-.139.409q-.07,0-.07.156a.231.231,0,0,0,.07-.156c.092,0,.139-.027.139-.078a.651.651,0,0,0,.209-.389c.092-.156.273-.468.54-.937a8.407,8.407,0,0,1,.781-1.166A28.139,28.139,0,0,1,108.4,289Zm8.708,32.556h.139a.172.172,0,0,1,.036-.117.175.175,0,0,0,.034-.117v-.076h-.07A.468.468,0,0,0,117.322,321.328Zm.888.194a.123.123,0,0,0,.017.117h.076a.236.236,0,0,1,.069-.156V321.4a.083.083,0,0,0-.139,0,.631.631,0,0,1-.023.117Zm.575,1.282c.023.053.047.078.07.078l.348-.625a1.905,1.905,0,0,0,.156-.312,1.016,1.016,0,0,0,.053-.624v-.078a.373.373,0,0,1-.139.078,12.056,12.056,0,0,0-.489,1.483Zm2.787-19.268c-.094,0-.139.078-.139.233a.142.142,0,0,0-.087.175,1.963,1.963,0,0,1,.017.214.468.468,0,0,1,.036-.194.5.5,0,0,0,.034-.2.25.25,0,0,0,.139-.233Zm.122-.233a.916.916,0,0,0,.087-.156.219.219,0,0,0-.139.136.226.226,0,0,0,0,.175A.276.276,0,0,1,121.693,303.3Zm.436-1.249c0-.052-.047-.025-.139.078a1.3,1.3,0,0,0-.07.253c-.023.117-.069.189-.139.214a.676.676,0,0,0,.348-.389Zm.348-1.009a.468.468,0,0,1-.034.194.468.468,0,0,0-.034.194c-.094,0-.117.027-.07.078l.07-.078a.966.966,0,0,0,.069-.383Zm.837-1.944a.937.937,0,0,0-.279.624.312.312,0,0,0-.087.251,1.693,1.693,0,0,1,.019.214.228.228,0,0,0-.141.058c-.047.039-.069.072-.069.1a3.627,3.627,0,0,0-.279.624.835.835,0,0,0,.279-.389,1.922,1.922,0,0,0,.209-.389,1.214,1.214,0,0,0,.069-.468.541.541,0,0,1,.087-.078.1.1,0,0,0,.052-.078,1.283,1.283,0,0,0,.141-.464Zm.487-1.249h-.07l-.208.468a.4.4,0,0,0,.278-.389Zm.976-2.475a.236.236,0,0,0-.07-.156v.078C124.753,295.326,124.777,295.351,124.777,295.378Z" transform="translate(-99.86 -278.428)" fill="#fff"/>
    </g>
    <g id="o" transform="translate(19.453 15.568)">
      <path id="Path_28" data-name="Path 28" d="M229.959,308.314l.025-.062a3.267,3.267,0,0,0,.12-.372h-.016l-.033.012h0l-.2.075-.183.067h-.156a2.13,2.13,0,0,0-.279.087l-.087.033-.092.017-.417.078-.312.059c-.176.067-.5.176-1.154.373-1.213.412-1.873.671-2.248.834,0,.258-.012.515-.012.773a21.08,21.08,0,0,0,1.547,8.376l.052-.134c.1-.275.22-.579.37-.929.126-.3.237-.56.329-.788.593-1.683,1.127-3.26,1.585-4.684l.011-.036.014-.034a32.865,32.865,0,0,0,1.143-3.678Z" transform="translate(-224.91 -288.281)" fill="#fff"/>
      <path id="Path_29" data-name="Path 29" d="M253.68,182.34c-11.241,0-18.7,5.933-21.43,14.372a7.138,7.138,0,0,0,.793-.156h.012a10.46,10.46,0,0,1,2.094-.3h.336a7.7,7.7,0,0,1,4.713,1.6c1.325-8.221,5.488-14.564,12.674-14.564,8.3,0,11.183,8.666,11.183,17.71,0,12.646-4.612,20.3-12.451,20.3h-.116c-5.4,0-9.54-3.939-11.092-10.878-.128.386-.27.807-.429,1.269v.036l-.827,2.153c-.284.843-.518,1.471-.718,1.917l-.617,1.571h0q-.276.679-.518,1.279c3.289,2.464,7.734,3.655,12.958,3.655h.116c13.141,0,22.362-7.526,22.362-21.7C272.7,189.8,266.713,182.34,253.68,182.34Z" transform="translate(-231.104 -182.34)" fill="#fff"/>
    </g>
    <g id="ummer" transform="translate(24.273 52.762)">
      <path id="Path_30" data-name="Path 30" d="M282.612,462.985c.136.059.2.125.2.2,0,.1-.1.237-.284.426l-.729,1.068q-1.939,2.712-2.918,3.987l-1.216,1.708-2.186,2.919a20.288,20.288,0,0,1-2.27,2.5l-.651.5-.648.5a1.811,1.811,0,0,1-.973.142,3.958,3.958,0,0,1-1.622-.5,1.745,1.745,0,0,1-.486-.57,5.261,5.261,0,0,1-.244-1.638,3.9,3.9,0,0,1-.041-.676,8.961,8.961,0,0,1,.041-.909c.027-.272.053-.5.081-.693q.08-.856.4-2.563a18.442,18.442,0,0,1,.568-2.774v-.428a.468.468,0,0,0-.244.142,4.6,4.6,0,0,1-.284.5,4.759,4.759,0,0,0-.283.5q-.083.142-.69,1.032l-1.58,2.528a15.5,15.5,0,0,1-1.338,1.78l-.851,1.13a12.57,12.57,0,0,1-1.7,1.852,9.328,9.328,0,0,1-1.541,1.352,9.6,9.6,0,0,1-.891.428.514.514,0,0,1-.325.072,5.279,5.279,0,0,1-2.106-.356,2.716,2.716,0,0,1-1.866-1.923,6.259,6.259,0,0,1-.156-1.458q0-.468.08-1.46a24.174,24.174,0,0,1,.974-4.84l1.21-3.346q.77-2.03.891-2.421a36.665,36.665,0,0,1,1.7-3.631l.973-2.065q.244-.356.729-1.21a1.165,1.165,0,0,0,.244-.286.893.893,0,0,1,.729-.356,2,2,0,0,0,.345.089.545.545,0,0,1,.384.267c.217-.094.351-.094.406,0a1.648,1.648,0,0,0,.223.142.323.323,0,0,1,.183.286h.081a.178.178,0,0,1,.12-.036.411.411,0,0,1,.244.089.373.373,0,0,0,.2.089l.156.214a.451.451,0,0,0,.156.356l.242.214a1.973,1.973,0,0,1,.284.818,3.986,3.986,0,0,1-.122.748,18.625,18.625,0,0,1-.567,1.922l-.879,2.275q-.893,1.923-1.784,4.2l-1.458,3.417a47.436,47.436,0,0,0-1.945,5.411.891.891,0,0,1-.081.426.094.094,0,0,0,.041.072.1.1,0,0,1,.041.07c.108,0,.156-.023.156-.07a.468.468,0,0,0,.242-.142,6.514,6.514,0,0,0,1.3-1.068,38.536,38.536,0,0,0,4.459-5.269q2.268-3.13,3.322-4.769l1.622-2.35q.768-1.354.891-1.638a2.79,2.79,0,0,0,.325-.712,20.148,20.148,0,0,1,1.621-3.489,5.787,5.787,0,0,1,.568-.854.706.706,0,0,1,.4-.356.484.484,0,0,1,.223-.156.3.3,0,0,1,.264.017,3.446,3.446,0,0,0,.506.156,1.324,1.324,0,0,1,.548.267.924.924,0,0,1,.567.231,4.013,4.013,0,0,1,.487.624,1,1,0,0,1,.242.926,3.624,3.624,0,0,1-.242,1.282l-.812,2.342q-.242.781-.81,2.35l-2.431,6.977q-.813,2.421-1.3,3.7a10.592,10.592,0,0,0-.325,1.494v.142h.156c.108,0,.156-.047.156-.142l.648-.426.325-.214-.081.284a.267.267,0,0,0,.081.214h.156a1.405,1.405,0,0,0,.364.072.718.718,0,0,0,.609-.356,1.766,1.766,0,0,1,.648-.57c.055-.072.142-.184.264-.339s.2-.231.223-.231a5.76,5.76,0,0,0-.792.551l-1.074.8,1.622-1.636a.331.331,0,0,0-.122.034.487.487,0,0,1-.2.036l-1.621,1.424.156-.57a16.714,16.714,0,0,0,1.174-1.249q.852-.96,1.419-1.672a16.408,16.408,0,0,0,1.621-2.136l1.216-1.717q1.784-2.562,2.757-3.844a1.035,1.035,0,0,1,.486-.57l.648.214A3.353,3.353,0,0,0,282.612,462.985Zm-23.106,7.6-.081.072c.058,0,.086-.023.086-.072Zm.081-.07a.9.9,0,0,0,.081-.428.1.1,0,0,1,.041-.072.1.1,0,0,0,.041-.07v-.072c0,.025-.028.048-.081.072v.142a.326.326,0,0,0-.077.423Zm.323-1.211.081-.07v-.072c-.053,0-.081.025-.081.072Zm.223-.337a.156.156,0,0,0-.061-.156.259.259,0,0,1-.041.108.357.357,0,0,0-.041.178.179.179,0,0,0,.147-.13Zm.081-.445a.7.7,0,0,1-.061.142l.081-.142.081-.142a.312.312,0,0,0-.1.142Zm.244-.837a.612.612,0,0,1-.061.2.261.261,0,0,0,.156-.356.192.192,0,0,0-.091.161Zm.284-.445a.557.557,0,0,1,.061-.142.392.392,0,0,0-.156.284.312.312,0,0,0,.1-.142Zm.222-.712h.081l.244-.5a.88.88,0,0,0,.081-.428.312.312,0,0,0,.142-.178.554.554,0,0,1,.1-.178,1.079,1.079,0,0,1,.081-.5h.081v-.072c0,.025-.028.048-.081.072a.312.312,0,0,0-.1.284c.012.12.02.19.02.214a.367.367,0,0,0-.244.356.2.2,0,0,0-.142.178.312.312,0,0,0,.061.25.3.3,0,0,0-.223.2,1.768,1.768,0,0,1-.094.226Z" transform="translate(-255.788 -448.9)" fill="#fff"/>
      <path id="Path_31" data-name="Path 31" d="M432.947,461.783a.415.415,0,0,1-.1.267,1.646,1.646,0,0,1-.142.156l-1.013,1.354a28.5,28.5,0,0,1-1.823,2.42l-.447.676-.689.962a30.064,30.064,0,0,0-1.784,2.848,20.58,20.58,0,0,1-1.864,2.563l-.567.568-.568.57a7.877,7.877,0,0,1-1.377,1.21,2.654,2.654,0,0,1-1.419.468,2.188,2.188,0,0,1-.445-.036,4.524,4.524,0,0,1-1.622-.428,1.856,1.856,0,0,1-.81-.924,3.985,3.985,0,0,1-.244-1.424,11.907,11.907,0,0,1,.244-2.417,31.81,31.81,0,0,1,.81-3.631l1.216-3.706a39.354,39.354,0,0,1,1.7-4.343l.487-1.138a.1.1,0,0,0-.041-.072.094.094,0,0,1-.042-.067c-.055.023-.081.047-.081.07l-.487.428q-.768.751-2.429,2.78a37.038,37.038,0,0,0-3.324,4.7l-2.351,3.773q-.81,1.282-1.215,1.852a20.193,20.193,0,0,1-1.7,2.5l-.567.64a.754.754,0,0,1-.729.214l-1.135-.214a3.055,3.055,0,0,1-1.054-.5l-.244-.286a2.317,2.317,0,0,0-.041-.426,2.342,2.342,0,0,1-.041-.428,20.8,20.8,0,0,1,.156-2.136,23.881,23.881,0,0,1,.567-3.2,17.387,17.387,0,0,1,.731-2.634q.973-3.133,1.783-5.483.609-1.814.81-2.278v-.15h-.081a.459.459,0,0,1-.244.142q-.973,1-1.377,1.5a34.309,34.309,0,0,0-2.108,2.776q-3.04,4.629-4.621,7.619-.971,1.85-1.539,2.776l-1.46,2.5-.242.214a.9.9,0,0,1-1.054.428,8.223,8.223,0,0,1-1.216-.286,1.744,1.744,0,0,1-.624-.284c-.2-.142-.343-.237-.425-.286a1.263,1.263,0,0,1-.325-.64,2.217,2.217,0,0,0-.041-.428,2.317,2.317,0,0,1-.041-.426c.028-.379.041-.937.041-1.674s.014-1.293.041-1.674a23.106,23.106,0,0,1,1.46-6.549c.108-.4.256-.866.445-1.388l.365-1.032a26.274,26.274,0,0,1,2.351-4.983,11.154,11.154,0,0,1,.891-1.561,5.141,5.141,0,0,1,.4-.5.835.835,0,0,1,.568-.214l.323.072a2.245,2.245,0,0,0,.223.142.447.447,0,0,0,.426,0,3.089,3.089,0,0,1,.284.156.67.67,0,0,1,.283.337.29.29,0,0,1,.325-.07l.244.142c.081,0,.128.017.142.053a.509.509,0,0,1,.02.156l-.081.284a.361.361,0,0,1,.1.019c.039.011.059,0,.059-.019a.29.29,0,0,1,.325.072l.081.142c.027.048.055.1.081.142a.615.615,0,0,1,.244.468,1.457,1.457,0,0,1-.156.532l-.447,1.176q-.122.392-.445,1.174l-.284.678q-1.3,2.848-1.986,4.876l-1.054,3.062-.244.57.244-.142a1.619,1.619,0,0,1,.156-.214.793.793,0,0,0,.156-.284q1.66-2.921,3.728-5.981a25.658,25.658,0,0,1,4.215-4.84l2.446-2.08a1.839,1.839,0,0,1,.4-.214.525.525,0,0,1,.325-.072,4.248,4.248,0,0,1,1.945.5l.244.214a4.356,4.356,0,0,0,.567.642,2.3,2.3,0,0,1,.487,1.424,17.617,17.617,0,0,1-.325,2.706,25.071,25.071,0,0,1-.891,2.918q-.406,1.21-.649,1.816l-.648,1.816-.486,1.5.081.07q.08-.034.08-.07c.028-.048.075-.119.142-.214a1.641,1.641,0,0,0,.183-.356,51.745,51.745,0,0,1,3.4-4.983,46.494,46.494,0,0,1,4.3-4.983,12.334,12.334,0,0,1,.973-.926L424.2,453.1a1.731,1.731,0,0,1,.284-.32,1.669,1.669,0,0,0,.283-.32.629.629,0,0,1,.568-.214l.426.07c.156.025.3.048.468.072q.156.073.426.178c.175.072.358.156.546.25a3.684,3.684,0,0,1,.468.5c.156.19.262.333.343.426a2.481,2.481,0,0,1,.244,1.282,15.964,15.964,0,0,1-.81,3.279q-.57,1.354-.81,2.064l-.568,1.424q-.365,1-1.249,2.919l-.381.851q-.974,2.279-1.135,2.635l-.487,1.068-.486,1.068c-.379.807-.648,1.424-.81,1.85a4.705,4.705,0,0,0-.2.57,4.887,4.887,0,0,1-.2.57.705.705,0,0,0,.081.356l.081.072.325-.286q1.944-1.992,2.756-2.99l1.379-1.78,1.945-2.563a6.093,6.093,0,0,0,.4-.57c.136-.212.244-.379.325-.5q.487-.781,1.621-2.278l.891-1.21c.028,0,.055-.023.081-.072a1.225,1.225,0,0,1,.312-.3.576.576,0,0,1,.312-.089,1.717,1.717,0,0,1,.364.036,1.967,1.967,0,0,0,.223.053.386.386,0,0,1,.183.089,1.093,1.093,0,0,0,.312.156.386.386,0,0,1,.237.276Zm-33.516,11.339a1,1,0,0,0,.2-.517,1.146,1.146,0,0,0-.242.284l-.406.57A1.372,1.372,0,0,0,399.432,473.122Zm3.606-6.5c-.055,0-.081.072-.081.214a.281.281,0,0,0-.156.286,1.278,1.278,0,0,0-.323.212,6.009,6.009,0,0,1-.406.781l-.738,1.285-1.541,2.706c-.027.07-.055.142-.081.214l-.081.212a.634.634,0,0,0,.325-.248,2.1,2.1,0,0,0,.156-.25l2.512-4.485c.027-.07.055-.142.081-.214l.081-.212a.312.312,0,0,0,.1-.144.737.737,0,0,1,.061-.142A.267.267,0,0,0,403.038,466.624Zm-3.4,4.84c.055,0,.081-.023.081-.07a.2.2,0,0,0,.081-.142l-.156.142Zm.081-1.068a.372.372,0,0,0,.081-.284,1.717,1.717,0,0,0,.406-.5q1.133-1.992,1.621-2.991a.27.27,0,0,0-.2.089,1.677,1.677,0,0,1-.12.125,2.551,2.551,0,0,0-.156.32,2.11,2.11,0,0,1-.244.392l-.568.926a4.7,4.7,0,0,0-.729,1.638.372.372,0,0,0-.087.286Zm.081.781.156-.214c-.1.1-.156.172-.156.219Zm.156-.286c.108-.094.156-.165.156-.212Zm2.27-4.059a35.2,35.2,0,0,0-2.108,3.56v.225a1.563,1.563,0,0,1,.142-.106.215.215,0,0,0,.1-.178l1.945-3.417v-.072l-.081-.07Zm-.318-.275a.269.269,0,0,1,.081-.214C401.877,466.435,401.849,466.506,401.9,466.557Zm.284-12.424a.244.244,0,0,0-.041.108.386.386,0,0,0,.081-.286.358.358,0,0,1-.041.175Zm1.176,11.923-.156.212c-.136.12-.156.214-.081.286a.382.382,0,0,0,.081-.286C403.308,466.268,403.363,466.2,403.363,466.056Zm.156-.286a.268.268,0,0,0-.081.214.272.272,0,0,0,.081-.208Zm.156-.284-.156.214c.112-.1.167-.167.167-.214Zm7.133,7.119a.133.133,0,0,1-.041.106.139.139,0,0,0-.041.108.269.269,0,0,0,.092-.214Zm.325-.428a.815.815,0,0,0-.325.356c.228-.07.336-.189.336-.356Zm.648-.924a2.062,2.062,0,0,0-.648.854,1.444,1.444,0,0,0,.66-.854Zm-.556-4.7h.081c0-.023-.028-.048-.081-.072Zm.244,4.2h.081a.384.384,0,0,0,.087-.141.241.241,0,0,0-.156.072Zm.244-1.494a1.922,1.922,0,0,0,.4-.214l.487-.926a.807.807,0,0,0-.568.5,2.714,2.714,0,0,1-.323.639Zm1.783-.712a.262.262,0,0,0-.2.089c-.055.059-.1.1-.122.123q-.567,1-1.3,2.065a.362.362,0,0,1-.041.178.363.363,0,0,0-.041.178.37.37,0,0,0,.244-.156.975.975,0,0,1,.156-.2l.406-.712a7.751,7.751,0,0,0,.729-1.282.393.393,0,0,0,.169-.292Zm-1.3.854-.248.567c-.108.1-.156.165-.156.214l.156-.214a1.226,1.226,0,0,0,.649-.856.468.468,0,0,0-.4.286Zm1.46-1.14c-.109.1-.156.167-.156.214Zm6.321,2.848q.326-.856.812-2.562v-.286a.325.325,0,0,1-.081.178.322.322,0,0,0-.081.178l-.487,1.282a12.812,12.812,0,0,0-.323,1.354.039.039,0,0,0,0,.07h.08a.267.267,0,0,0,.081-.217Zm-.156-2.634Zm.156-.64v-.072a.042.042,0,0,0,0,.069Zm.081-.445a.993.993,0,0,1-.081.231.37.37,0,0,0,.183-.231.638.638,0,0,1,.061-.2.245.245,0,0,0-.155.194Zm.156-.267.081-.072-.081-.072Zm.081,5.62a.267.267,0,0,1-.041.108.342.342,0,0,0-.041.178v.07l.081-.07Zm4.059-10.46a4.078,4.078,0,0,0,.325-1,.92.92,0,0,1-.1.142.223.223,0,0,0-.061.144q-.122.248-.81,1.85l-2.186,5.339-.973,2.5a4.593,4.593,0,0,0-.244,1.424.445.445,0,0,0,.244-.3.957.957,0,0,1,.081-.267q1.13-3.286,3.725-9.834Zm-3.789,3.608a.312.312,0,0,1-.1.156c.108-.048.156-.167.156-.356l.081-.072v-.072a.2.2,0,0,1-.081.144,1.2,1.2,0,0,0-.055.2Zm-.1.445Zm.4,1.852c.055-.048.081-.19.081-.428a.242.242,0,0,0,.156-.2,1.008,1.008,0,0,1,.081-.233v-.142c-.027,0-.055.025-.081.072a.64.64,0,0,0-.156.5C420.848,467.962,420.817,468.1,420.87,468.192Zm0-3.061.081-.072h-.081Zm.487-1.354c.053-.023.081-.047.081-.07v-.072l-.081.072Zm0,2.848h.081v-.142l-.081.072Zm.156-.212a.406.406,0,0,0,0-.428Zm.122-.642a.578.578,0,0,0-.041.214.251.251,0,0,0,.1-.231,1.23,1.23,0,0,1-.02-.2.6.6,0,0,0,.156-.2.323.323,0,0,0,0-.231l-.08.214c-.028.07-.055.142-.081.212a.605.605,0,0,1-.03.22Zm.2-2.99a.362.362,0,0,1,.041-.178.342.342,0,0,0,.041-.178c-.155.073-.183.19-.075.356Zm2.918-1.561a1.474,1.474,0,0,0,.062-.2.29.29,0,0,1,.1-.156c-.027-.048-.055-.072-.081-.072a.9.9,0,0,0-.075.42Z" transform="translate(-373.823 -447.289)" fill="#fff"/>
      <path id="Path_32" data-name="Path 32" d="M638.289,461.783a.417.417,0,0,1-.1.267,1.639,1.639,0,0,1-.142.156l-1.013,1.354a28.5,28.5,0,0,1-1.823,2.42l-.446.676-.688.962a30.058,30.058,0,0,0-1.784,2.848,20.416,20.416,0,0,1-1.864,2.563l-.567.568-.568.57a7.877,7.877,0,0,1-1.377,1.21,2.654,2.654,0,0,1-1.419.468,2.188,2.188,0,0,1-.445-.036,4.511,4.511,0,0,1-1.622-.428,1.856,1.856,0,0,1-.81-.924,3.984,3.984,0,0,1-.244-1.424,11.9,11.9,0,0,1,.244-2.417,31.8,31.8,0,0,1,.81-3.631l1.216-3.706a39.678,39.678,0,0,1,1.7-4.343l.487-1.138a.1.1,0,0,0-.041-.072.094.094,0,0,1-.041-.07c-.055.023-.081.047-.081.07l-.487.428q-.768.754-2.431,2.784a37.032,37.032,0,0,0-3.324,4.7l-2.351,3.773q-.81,1.282-1.215,1.852a20.2,20.2,0,0,1-1.7,2.5l-.567.64a.754.754,0,0,1-.729.214l-1.135-.214a3.056,3.056,0,0,1-1.054-.5l-.244-.286a2.317,2.317,0,0,0-.041-.426,2.345,2.345,0,0,1-.041-.428,20.812,20.812,0,0,1,.156-2.136,23.892,23.892,0,0,1,.567-3.2,17.385,17.385,0,0,1,.731-2.634q.973-3.133,1.783-5.483.609-1.814.81-2.278v-.15h-.081a.459.459,0,0,1-.244.142q-.973,1-1.377,1.5a34.3,34.3,0,0,0-2.108,2.776q-3.04,4.629-4.621,7.619-.973,1.85-1.539,2.776l-1.46,2.5-.242.214a.9.9,0,0,1-1.054.428,8.224,8.224,0,0,1-1.216-.286,1.744,1.744,0,0,1-.624-.284c-.2-.142-.343-.237-.425-.286a1.263,1.263,0,0,1-.325-.64,2.216,2.216,0,0,0-.041-.428,2.322,2.322,0,0,1-.041-.426c.028-.379.041-.937.041-1.674s.014-1.293.041-1.674a23.109,23.109,0,0,1,1.46-6.549c.108-.4.256-.866.445-1.388l.365-1.032a26.637,26.637,0,0,1,2.353-5,11.322,11.322,0,0,1,.891-1.561,5.408,5.408,0,0,1,.4-.5.835.835,0,0,1,.568-.214l.325.072a1.984,1.984,0,0,0,.222.142.447.447,0,0,0,.426,0,3.079,3.079,0,0,1,.284.156.669.669,0,0,1,.283.337.29.29,0,0,1,.325-.07l.244.142c.081,0,.128.017.142.053a.51.51,0,0,1,.02.156l-.081.284a.363.363,0,0,1,.1.019q.061.017.061-.019a.289.289,0,0,1,.323.072l.081.142c.027.048.055.1.081.142a.615.615,0,0,1,.244.468,1.457,1.457,0,0,1-.156.532l-.446,1.176q-.122.392-.445,1.174l-.284.678q-1.3,2.848-1.986,4.876l-1.054,3.062-.244.57.244-.142a1.616,1.616,0,0,1,.156-.214.792.792,0,0,0,.156-.284q1.66-2.921,3.728-5.981a25.716,25.716,0,0,1,4.215-4.84l2.432-2.064a1.839,1.839,0,0,1,.4-.214.525.525,0,0,1,.325-.072,4.248,4.248,0,0,1,1.945.5l.244.214a4.363,4.363,0,0,0,.567.642,2.3,2.3,0,0,1,.487,1.424,17.619,17.619,0,0,1-.325,2.706,25.078,25.078,0,0,1-.877,2.918q-.406,1.21-.649,1.816l-.648,1.816-.486,1.5.081.07q.08-.034.08-.07c.028-.048.075-.119.142-.214a1.64,1.64,0,0,0,.183-.356,51.745,51.745,0,0,1,3.4-4.983,46.5,46.5,0,0,1,4.293-4.983,12.607,12.607,0,0,1,.973-.926l2.431-2.208a1.733,1.733,0,0,1,.284-.32,1.732,1.732,0,0,0,.284-.32.625.625,0,0,1,.567-.214l.426.07c.156.025.3.048.468.072q.156.073.426.178c.175.072.357.156.546.25a3.679,3.679,0,0,1,.468.5c.148.19.264.333.343.426a2.481,2.481,0,0,1,.244,1.282,15.966,15.966,0,0,1-.81,3.279q-.568,1.354-.81,2.064l-.568,1.424q-.364,1-1.249,2.919l-.365.854q-.973,2.279-1.135,2.635l-.493,1.065-.487,1.068q-.567,1.211-.81,1.85a4.987,4.987,0,0,0-.2.57,4.893,4.893,0,0,1-.2.57.705.705,0,0,0,.081.356l.081.072.325-.286q1.944-1.992,2.755-2.99l1.379-1.78,1.945-2.563a5.8,5.8,0,0,0,.4-.57c.136-.212.244-.379.325-.5q.487-.781,1.62-2.278l.893-1.21c.027,0,.053-.023.08-.072a1.227,1.227,0,0,1,.312-.3.576.576,0,0,1,.3-.089,1.747,1.747,0,0,1,.365.036,1.865,1.865,0,0,0,.222.053.386.386,0,0,1,.183.089,1.126,1.126,0,0,0,.3.156.39.39,0,0,1,.264.267Zm-33.517,11.339a.987.987,0,0,0,.2-.517,1.146,1.146,0,0,0-.242.284l-.406.57A1.372,1.372,0,0,0,604.772,473.122Zm3.606-6.5c-.055,0-.081.072-.081.214a.281.281,0,0,0-.156.286,1.278,1.278,0,0,0-.323.212,6.011,6.011,0,0,1-.406.781l-.729,1.282-1.541,2.706c-.027.07-.055.142-.081.214l-.081.212a.634.634,0,0,0,.325-.248,1.906,1.906,0,0,0,.156-.25l2.512-4.485c.027-.07.055-.142.081-.214l.081-.212a.313.313,0,0,0,.1-.144.733.733,0,0,1,.061-.142A.267.267,0,0,0,608.378,466.624Zm-3.4,4.84c.055,0,.081-.023.081-.07a.2.2,0,0,0,.081-.142l-.156.142Zm.081-1.068a.371.371,0,0,0,.081-.284,1.717,1.717,0,0,0,.406-.5q1.133-1.992,1.621-2.991a.27.27,0,0,0-.2.089,1.4,1.4,0,0,1-.12.125,2.544,2.544,0,0,0-.156.32,2.107,2.107,0,0,1-.244.392l-.567.926a4.726,4.726,0,0,0-.731,1.638.372.372,0,0,0-.083.286Zm.081.781.156-.214c-.1.1-.156.172-.156.219Zm.156-.286c.108-.094.156-.165.156-.212Zm2.27-4.059a35.192,35.192,0,0,0-2.108,3.56v.225a1.572,1.572,0,0,1,.142-.106.215.215,0,0,0,.1-.178l1.945-3.417v-.072l-.081-.07Zm-.317-.275a.269.269,0,0,1,.081-.214C607.217,466.435,607.189,466.506,607.245,466.557Zm.284-12.424a.244.244,0,0,0-.041.108.386.386,0,0,0,.081-.286.358.358,0,0,1-.042.175Zm1.176,11.926-.156.212c-.136.12-.156.214-.081.286a.382.382,0,0,0,.081-.286c.1,0,.155-.073.155-.215Zm.156-.286a.269.269,0,0,0-.081.214.272.272,0,0,0,.086-.211Zm.156-.284-.156.214c.112-.1.165-.17.165-.217Zm7.133,7.119a.132.132,0,0,1-.041.106.139.139,0,0,0-.041.108.269.269,0,0,0,.091-.217Zm.325-.428a.815.815,0,0,0-.325.356c.226-.073.334-.192.334-.359Zm.648-.924a2.062,2.062,0,0,0-.648.854,1.444,1.444,0,0,0,.657-.857Zm-.557-4.7h.081c0-.023-.028-.048-.081-.072Zm.244,4.2h.081a.384.384,0,0,0,.081-.142.24.24,0,0,0-.156.072Zm.244-1.494a1.922,1.922,0,0,0,.4-.214l.487-.926a.807.807,0,0,0-.568.5,2.716,2.716,0,0,1-.323.639Zm1.783-.712a.262.262,0,0,0-.2.089c-.055.059-.1.1-.122.123q-.567,1-1.3,2.065a.362.362,0,0,1-.041.178.362.362,0,0,0-.041.178.37.37,0,0,0,.244-.156.977.977,0,0,1,.156-.2l.406-.712a7.755,7.755,0,0,0,.729-1.282.393.393,0,0,0,.169-.292Zm-1.3.854-.244.57c-.108.1-.156.165-.156.214l.156-.214a1.226,1.226,0,0,0,.649-.856.468.468,0,0,0-.406.283Zm1.46-1.14c-.109.1-.156.167-.156.214Zm6.321,2.848q.326-.856.812-2.562v-.286a.325.325,0,0,1-.081.178.321.321,0,0,0-.081.178l-.487,1.282a12.82,12.82,0,0,0-.323,1.354.039.039,0,0,0,0,.07h.08a.267.267,0,0,0,.081-.217Zm-.156-2.634Zm.156-.64v-.072a.042.042,0,0,0,0,.069Zm.081-.445a.991.991,0,0,1-.081.231.37.37,0,0,0,.183-.231.636.636,0,0,1,.061-.2.245.245,0,0,0-.162.194Zm.156-.267.081-.072-.081-.072Zm.081,5.62a.268.268,0,0,1-.041.108.358.358,0,0,0-.041.178v.07l.081-.07Zm4.059-10.46a4.079,4.079,0,0,0,.325-1,.918.918,0,0,1-.1.142.223.223,0,0,0-.061.144q-.122.248-.81,1.85l-2.186,5.339-.973,2.5a4.593,4.593,0,0,0-.244,1.424.445.445,0,0,0,.244-.3.956.956,0,0,1,.081-.267q1.13-3.286,3.725-9.834Zm-3.789,3.613a.312.312,0,0,1-.1.156c.108-.048.156-.167.156-.356l.081-.072v-.072a.2.2,0,0,1-.081.144,1.2,1.2,0,0,0-.055.2Zm-.1.445Zm.4,1.852c.055-.048.081-.19.081-.428a.242.242,0,0,0,.156-.2,1.007,1.007,0,0,1,.081-.233V467.2c-.027,0-.055.025-.081.072a.64.64,0,0,0-.156.5c-.108.194-.134.328-.081.423Zm0-3.062.081-.072h-.081Zm.487-1.354c.055-.023.081-.047.081-.07v-.072l-.081.072Zm0,2.848h.081v-.142l-.081.072Zm.156-.212a.406.406,0,0,0,0-.428Zm.122-.642a.577.577,0,0,0-.041.214.251.251,0,0,0,.1-.231,1.23,1.23,0,0,1-.02-.2.6.6,0,0,0,.156-.2.323.323,0,0,0,0-.231l-.08.214c-.028.07-.055.142-.081.212a.6.6,0,0,1-.03.215Zm.2-2.99a.363.363,0,0,1,.041-.178.342.342,0,0,0,.041-.178c-.155.069-.186.186-.075.351Zm2.919-1.561a1.716,1.716,0,0,0,.061-.2.294.294,0,0,1,.1-.156c-.028-.048-.055-.072-.081-.072a.881.881,0,0,0-.075.415Z" transform="translate(-547.106 -447.289)" fill="#fff"/>
      <path id="Path_33" data-name="Path 33" d="M827.183,468.112c.027.059,0,.137-.081.233-.108.165-.312.5-.624,1.013a13.933,13.933,0,0,1-.916,1.33l-3.653,4.49a30.851,30.851,0,0,1-4.134,4.059,9.972,9.972,0,0,1-1.783,1.28,7.384,7.384,0,0,1-1.013.534c-.379.167-.635.273-.77.322a5.329,5.329,0,0,1-1.5.212,7.585,7.585,0,0,1-.851-.07,1.447,1.447,0,0,1-.568-.142,5.964,5.964,0,0,1-3.647-2.208,6.092,6.092,0,0,1-.648-1.282,6.78,6.78,0,0,1-.487-1.708,3,3,0,0,0-.156-1.068,26.643,26.643,0,0,1,.406-2.777A14.66,14.66,0,0,1,808.7,467.2a23.062,23.062,0,0,1,1.7-2.706,17.254,17.254,0,0,1,3.73-3.7,9,9,0,0,1,2.674-1.282,8.162,8.162,0,0,1,1.379-.284,3.336,3.336,0,0,1,1.377,0,11.348,11.348,0,0,1,2.757.924,4.139,4.139,0,0,1,1.783,1.923,3.04,3.04,0,0,1,.244,1.21,3.24,3.24,0,0,1-.156,1.068,5.029,5.029,0,0,1-1.622,2.5,14.966,14.966,0,0,1-4.944,2.563,12.254,12.254,0,0,1-1.458.356,7.732,7.732,0,0,1-.891.07,4.454,4.454,0,0,1-1.953-.432.178.178,0,0,1-.12-.036.186.186,0,0,0-.122-.036.29.29,0,0,0-.325.072.968.968,0,0,1-.1.142.219.219,0,0,0-.061.142,22.236,22.236,0,0,0-2.03,5.339,11.178,11.178,0,0,0-.4,2.848,3.674,3.674,0,0,0,.489,1.859,1.052,1.052,0,0,0,.406.373,1.146,1.146,0,0,0,.567.053,2.4,2.4,0,0,0,.973-.212,7.989,7.989,0,0,0,2.915-1.5,24.714,24.714,0,0,0,4.7-4.413l.891-1.034.891-1.032a31.953,31.953,0,0,0,3.243-3.915,1.636,1.636,0,0,0,.323-.428c.081-.142.217-.165.406-.07a4.077,4.077,0,0,0,.487.178,4.158,4.158,0,0,1,.485.178.557.557,0,0,1,.247.2Zm-16.536-1.833a.136.136,0,0,1,.041-.106.137.137,0,0,0,.041-.108A.272.272,0,0,0,810.646,466.279Zm.312,3.648a.289.289,0,0,1,.1-.156.446.446,0,0,0-.156.356,1.713,1.713,0,0,0,.047-.2Zm.1-.231a.4.4,0,0,0,.156-.284.843.843,0,0,0,.323-.642.668.668,0,0,0-.323.642.276.276,0,0,0-.164.284Zm.231-4.343v-.286Q811.176,465.175,811.291,465.353Zm.244-.426a.569.569,0,0,0,.081-.286.376.376,0,0,0-.078.286Zm0,3.773a.126.126,0,0,0,.081-.036.126.126,0,0,1,.081-.036v-.142c-.055.023-.081.047-.081.07a.2.2,0,0,0-.078.144Zm.709-1.265c.014.036.02.03.02-.017v-.072a.075.075,0,0,0-.017.089Zm.02-2.011c.028,0,.055-.023.081-.072Zm0,1.85a.29.29,0,0,0,.156-.053c.055-.034.081-.064.081-.089l.406-.64a.247.247,0,0,0-.156.07,6.547,6.547,0,0,1-.484.712Zm.649-.854a.28.28,0,0,0,.156-.284.28.28,0,0,0-.156.284Zm.244-.5-.081.142a.178.178,0,0,0,.122-.036.178.178,0,0,1,.12-.034l1.219-1.708a.267.267,0,0,0,.081-.214,1.112,1.112,0,0,0,.649-.64,1.112,1.112,0,0,0-.649.64.156.156,0,0,0-.156.089.357.357,0,0,1-.081.125l-1.133,1.5Zm.4,2.065a.371.371,0,0,0-.081.284c0,.1.026.142.081.142h.81a9.525,9.525,0,0,0,1.945-.426,18.032,18.032,0,0,0,2.432-1.069A8.5,8.5,0,0,0,821.181,465a4.162,4.162,0,0,0,.973-1.85,1.49,1.49,0,0,0,.081-.57,4.352,4.352,0,0,0-.156-.926c-.081-.261-.325-.428-.729-.5a4.191,4.191,0,0,0-1.7.356,10.439,10.439,0,0,0-2.674,1.922,19.407,19.407,0,0,0-3.408,4.557Zm1.7-4.629c.108,0,.156-.023.156-.07a.112.112,0,0,0,.081-.053.574.574,0,0,1,.081-.089l.156-.144c-.108,0-.156.048-.156.144-.108,0-.156.047-.156.142q-.159,0-.159.07Z" transform="translate(-720.397 -453.137)" fill="#fff"/>
      <path id="Path_34" data-name="Path 34" d="M949.721,435.022q.2.089.2.2a1.807,1.807,0,0,1-.323.57l-1.784,2.342-1.661,2.35q-.526.781-1.661,2.342-1.58,2.387-4.215,5.767-.406.5-1.216,1.352a7.764,7.764,0,0,1-1.054,1.14,12.132,12.132,0,0,1-2.674,2.42l-.731.428a1.908,1.908,0,0,1-1.013.25,1.407,1.407,0,0,1-.364-.036l-1.374-.2a3.018,3.018,0,0,1-1.62-.781,2.1,2.1,0,0,1-.729-1.424,6.833,6.833,0,0,1-.081-1.21,19.415,19.415,0,0,1,.648-4.2,14.966,14.966,0,0,1,.749-2.137c.312-.71.493-1.138.548-1.28q.484-1.068,1.135-2.208.281-.6.937-1.744l.607-1.1a20.354,20.354,0,0,0,1.3-3.133,5.828,5.828,0,0,0,.2-.64,5.825,5.825,0,0,1,.2-.64,1.9,1.9,0,0,0,.081-.642,1.37,1.37,0,0,0-.567-1.21,9.592,9.592,0,0,0-.973-.712,6.825,6.825,0,0,1-1.955-1.646c-.109-.142-.27-.343-.487-.6a4.87,4.87,0,0,1-.486-.678,3.246,3.246,0,0,1-.487-1.922,6.13,6.13,0,0,1,.568-2.278q.362-.642.79-1.3a6.167,6.167,0,0,1,.912-1.122,3.507,3.507,0,0,1,1.135-.712.781.781,0,0,1,.284-.036,1.112,1.112,0,0,1,.445.108,4.579,4.579,0,0,0,.507.142,1.076,1.076,0,0,1,.468.214c.108.1.156.165.156.214h.083a.542.542,0,0,1,.312.142.539.539,0,0,0,.262.142l.081.072a1.6,1.6,0,0,1-.244.356l-.156.356a1.466,1.466,0,0,0,.262-.178.468.468,0,0,1,.386-.108.3.3,0,0,1,.244.267,1.056,1.056,0,0,0,.081.3.518.518,0,0,1,.081.356,1.506,1.506,0,0,1-.325.57,11.359,11.359,0,0,0-1.539,3.417,3.748,3.748,0,0,0-.244,1.14,2.626,2.626,0,0,0,.081.5,1.756,1.756,0,0,0,.485.781c.108.072.244.167.406.286a2.53,2.53,0,0,0,.486.284,12.5,12.5,0,0,1,3.811,4.2,4.135,4.135,0,0,1,.323.854,5.338,5.338,0,0,1,.156,1.068.717.717,0,0,1,.041.25l-.041.534a7.849,7.849,0,0,1-.891,2.924q-.781,1.6-1.873,3.56l-1.216,2.5-1.7,3.062a15.976,15.976,0,0,0-.812,1.638c-.027,0-.034.019-.02.053a.253.253,0,0,1,.02.089.469.469,0,0,0,.156-.07l.156-.144a36.219,36.219,0,0,0,4.459-4.769q2.593-3.13,3.809-4.7,1.62-2.136,2.512-3.2l2.513-2.99a.684.684,0,0,1,.223-.142.5.5,0,0,1,.264,0,1.878,1.878,0,0,0,.222.053.385.385,0,0,1,.183.089C949.409,434.886,949.586,434.964,949.721,435.022Zm-18.684,13.937q.648-2.136,1.054-3.133a32.908,32.908,0,0,1,2.1-4.556l.365-.712q1.133-2.206,1.5-3.133a.983.983,0,0,0-.4.5q-.568.926-1.249,2.342l-.851,1.638a25.663,25.663,0,0,0-2.595,6.265,7.618,7.618,0,0,0-.156,1.21c-.027,0-.027.025,0,.072l.081-.072A1.012,1.012,0,0,1,931.037,448.959Zm1.3.07a48.107,48.107,0,0,1,2.186-5.2l.891-1.814q.323-.607.891-1.816c.108-.214.2-.415.284-.606s.175-.392.283-.6a1.523,1.523,0,0,0-.323.356l-1.784,3.2a35.02,35.02,0,0,0-2.268,4.84,22.559,22.559,0,0,0-.812,2.99v.214c.027,0,.055-.025.081-.072a1.6,1.6,0,0,0,.245-.354A8.69,8.69,0,0,1,932.334,449.029Zm2.431-2.064q.852-1.85,2.716-5.481l.851-1.717a12.614,12.614,0,0,0,.567-1.352.192.192,0,0,0-.081-.142v.07a1.661,1.661,0,0,0-.323.428l-1.135,1.994q-1.013,1.816-1.783,3.279c-.081.167-.183.362-.312.589a7.744,7.744,0,0,0-.345.729q-.156.356-.668,1.371t-.871,1.873l-.244.712a9.258,9.258,0,0,0-.487,1.424c-.027.165-.053.333-.081.5l-.08.5a.1.1,0,0,0,.041.072.1.1,0,0,1,.039.07c.055,0,.081-.023.081-.07l.244-.428a33.328,33.328,0,0,1,1.872-4.415Zm-2.186,2.706a.2.2,0,0,0-.08.142v.072c0-.023.027-.048.08-.072Zm.974-2.706-.731,1.708-.244.926a1.561,1.561,0,0,0,.244-.356l.973-2.342v-.292a1.6,1.6,0,0,0-.245.356Zm.283-24.579a1.215,1.215,0,0,1,.2-.125.431.431,0,0,0-.406.214l-.08.284a.38.38,0,0,0,.08-.284.373.373,0,0,0,.2-.089Zm.284,23.44v.072q-.326.426-.244.64a.879.879,0,0,0,.24-.712Zm.325-.64a.278.278,0,0,0,.156-.284.557.557,0,0,0,.223-.339,1.571,1.571,0,0,1,.1-.3.667.667,0,0,0-.325.642.278.278,0,0,0-.156.284,1.765,1.765,0,0,1-.183.231.593.593,0,0,0-.142.409.667.667,0,0,0,.322-.64Zm.81-22.995a.468.468,0,0,1-.244.142.179.179,0,0,0,.122-.036.179.179,0,0,1,.122-.036Zm.567,1h.081c.055-.072.156-.184.284-.339a1.5,1.5,0,0,0,.284-.445,1.01,1.01,0,0,0-.649.712Zm.325,22.569q-.039,0,0,.07Zm.081-.142c0,.023-.028.047-.081.07h.076Z" transform="translate(-824.253 -420.581)" fill="#fff"/>
    </g>
    <g id="ntario" transform="translate(60.582 38.027)">
      <path id="Path_35" data-name="Path 35" d="M503.135,366.814a.389.389,0,0,1,.134.278c0,.027,0,.055-.067.055-1.041-.028-1.78-.055-3.055-.055-1.444,0-2.217.027-3.091.055-.067,0-.067-.028-.067-.055,0-.139.034-.25.134-.278l1.041-.278a.432.432,0,0,0,.37-.415c.034-.389.169-2.966.169-4.048,0-2.136-.067-5.38-1.747-5.38-1.31,0-2.52,2.218-3.122,5.046a31.831,31.831,0,0,0-.368,4.437.351.351,0,0,0,.3.361l1.041.278c.1.028.134.194.134.278,0,.027,0,.055-.067.055-1.041-.028-1.881-.055-3.122-.055-1.377,0-2.15.027-3.157.055-.067,0-.067-.028-.067-.055a.312.312,0,0,1,.169-.312l1.208-.25c.2-.055.336-.137.336-.3,0-.781-.067-4.1-.067-5.152,0-.832-.134-4.187-.167-5.152a.312.312,0,0,0-.3-.361l-1.141-.083c-.1,0-.2-.222-.2-.361,0-.028,0-.055.1-.083l5.207-.781c.167-.027.234.084.234.223,0,.111-.1,3.049-.167,4.353a8.145,8.145,0,0,1-.067.86h.134a6.632,6.632,0,0,1,.269-.781c.781-2.108,2.485-4.66,4.568-4.66,2.317,0,3.425,1.886,3.425,5.353,0,1.83-.2,5.152-.336,6.323-.034.359.033.468.3.554Z" transform="translate(-488.36 -349.871)" fill="#fff"/>
      <path id="Path_36" data-name="Path 36" d="M594.911,336.533q-.2,2.826-.2,6.321c0,3.994,1.208,4.576,2.418,4.576a7.164,7.164,0,0,0,.771-.027,7.417,7.417,0,0,0,1.31-.334c.1-.027.134.139.134.25a.211.211,0,0,1-.134.222,8.826,8.826,0,0,1-2.451.749,13.548,13.548,0,0,1-1.377.028c-2.721,0-4.5-1.027-4.535-5.019,0-1.5.236-4.743.468-6.713l-2.147.034a.122.122,0,0,1-.134-.139,1.427,1.427,0,0,1,.1-.443.6.6,0,0,1,.539-.361l1.78.028a20.308,20.308,0,0,1,.468-2.386c.067-.3.3-.637,1.208-.971a21.129,21.129,0,0,1,2.05-.609c.067,0,.1.055.067.222-.1.781-.3,2.716-.336,3.747l4.059.083a.069.069,0,0,1,.067.055c0,.167-.134.417-.2.417Z" transform="translate(-573.315 -330.875)" fill="#fff"/>
      <path id="Path_37" data-name="Path 37" d="M666.062,359.557a8.093,8.093,0,0,0-.134-1.5c-.134-1.165-.738-2.44-2.115-2.44a5.481,5.481,0,0,0-3.561,1.8.183.183,0,0,1-.1.056c-.1,0-.4-.25-.269-.389a7.827,7.827,0,0,1,6.146-2.829c2.955,0,3.761,2.5,3.761,5.269,0,.5-.067,2.44-.1,3.3-.069,1.358-.169,2.8-.169,3.355,0,.167.033.223.3.312l.873.276a.293.293,0,0,1,.2.312c0,.055-.034.055-.1.055-.4-.027-1.377-.027-2.35-.027-.84,0-1.546.027-1.916.027-.067,0-.134-.055-.134-.165-.033-.278-.067-1.249-.067-1.942,0-.165.034-.582.034-.693l-.067-.027c-.1.165-.2.387-.336.582a4.143,4.143,0,0,1-3.728,2.44c-1.848,0-3.494-1.332-3.494-3.883,0-2.329,1.405-4.965,4.4-4.965a3.643,3.643,0,0,1,2.351.721,5.433,5.433,0,0,1,.437.389Zm-2.115,6.267c.84,0,1.813-1.108,2.217-2.745a3.6,3.6,0,0,0,.134-.8,6.784,6.784,0,0,0-.1-.781c-.167-.781-.781-2.245-2.048-2.245-1.249,0-1.646,1.83-1.646,3.77,0,1.747.537,2.8,1.405,2.8Z" transform="translate(-632.14 -349.879)" fill="#fff"/>
      <path id="Path_38" data-name="Path 38" d="M748.335,359.8c.033-.194.1-.468.134-.639.436-1.941,1.914-4.908,4.164-4.908a1.974,1.974,0,0,1,.874.167c.067.028.1.083.1.194l.169,3.55c0,.111-.236.25-.336.25a.186.186,0,0,1-.1-.056c-.336-.582-.706-1.219-1.074-1.8a.793.793,0,0,0-.639-.389c-1.717,0-2.855,3.466-3.325,6.295a30.356,30.356,0,0,0-.268,3.747c0,.2.169.278.4.312l1.916.312c.067,0,.167.165.167.25,0,.055,0,.083-.067.083-.571-.028-2.217-.055-3.93-.055-1.646,0-2.99.055-3.258.055-.067,0-.067-.028-.067-.055a.27.27,0,0,1,.169-.278l1.108-.312c.2-.028.336-.111.336-.278,0-.443-.034-3.965-.067-5.1-.034-1.332-.1-4.161-.169-5.047,0-.2-.033-.361-.268-.389l-1.208-.083c-.169,0-.236-.2-.236-.312,0-.055,0-.055.1-.083l5.205-.915c.3-.056.336.055.336.194,0,.222-.167,3.578-.268,4.715,0,.139-.033.389-.033.582Z" transform="translate(-703.128 -349.871)" fill="#fff"/>
      <path id="Path_39" data-name="Path 39" d="M824.342,330.581c.268-.027.3.139.3.278,0,.333-.236,4.548-.3,6.351-.034,1.08-.134,4.048-.134,5.352,0,.194.1.25.336.3l1.141.278a.389.389,0,0,1,.134.278.067.067,0,0,1-.067.055c-.671-.028-1.947-.055-3.257-.055-1.444,0-2.687.027-3.191.055-.1,0-.1-.028-.1-.055a.27.27,0,0,1,.169-.278l1.208-.333c.2-.056.337-.083.337-.25,0-.278-.069-3.747-.1-5.186-.033-1.219-.134-4.27-.169-5.152,0-.194-.067-.3-.3-.3l-1.31-.055c-.1,0-.236-.167-.236-.334,0-.055,0-.083.067-.083Zm-2.016-4.381c1.143,0,1.814.61,1.814,1.414a1.667,1.667,0,0,1-1.847,1.5c-.937,0-1.983-.5-1.983-1.414,0-.832.773-1.5,1.983-1.5Z" transform="translate(-767.212 -326.2)" fill="#fff"/>
      <path id="Path_40" data-name="Path 40" d="M879.219,367.322c-3.325,0-5.339-2.553-5.339-5.825,0-3.747,2.081-7.238,6.713-7.238A5.372,5.372,0,0,1,886.3,360c0,3.55-1.881,7.322-7.053,7.322Zm1.009-.528c2.014,0,2.048-3.19,2.048-6.267,0-3.161-.639-5.74-2.115-5.74-1.948,0-2.251,3.022-2.251,6.295,0,2.857.773,5.712,2.284,5.712Z" transform="translate(-813.693 -349.879)" fill="#fff"/>
    </g>
    <path id="sunshine" d="M247.706,0,244.44,9.882l3.322-.312,3.21.312Z" transform="translate(-206.337)" fill="#fff"/>
    <path id="sunshine-2" data-name="sunshine" d="M341.858,32.49,334.1,39.426l3.035,1.386,2.626,1.87Z" transform="translate(-282 -27.418)" fill="#fff"/>
    <path id="sunshine-3" data-name="sunshine" d="M413.639,115.3l-10.889,2.173,2.04,2.918,1.4,3.143Z" transform="translate(-339.932 -97.299)" fill="#fff"/>
    <path id="sunshine-4" data-name="sunshine" d="M365.65,143.92" transform="translate(-324.225 -134.35)"/>
    <path id="sunshine-5" data-name="sunshine" d="M145.51,28.88l2.312,10.746,2.8-1.994,3.027-1.363Z" transform="translate(-122.852 -24.371)" fill="#fff"/>
    <path id="sunshine-6" data-name="sunshine" d="M55.47,114.85l7.745,8.463,1.436-3.122,1.975-2.671Z" transform="translate(-46.869 -96.92)" fill="#fff"/>
    <path id="sun" d="M251.022,163.639a27.185,27.185,0,0,0-52.072-.165l2.574.165a24.746,24.746,0,0,1,46.9,0Z" transform="translate(-183.55 -134.578)" fill="#fff"/>
    <path id="maple_leaf" data-name="maple leaf" d="M1026.974,339.53l6.245,5.45s.478-2.442.582-3.071a.706.706,0,0,1,.677-.624l11.183-1.329s-1-1.436-1.321-1.937a.524.524,0,0,1,.092-.768l4.371-3.7s-4.863-1.6-5.11-1.753a.521.521,0,0,1-.222-.468l.343-2.654a47.022,47.022,0,0,1-5.766,1.611c-1.193.075-.559-.965-.559-.965l6.927-7.447s-3.279-.156-3.8-.17-.431-.459-.431-.459l.625-7.071s-5.25,3.168-5.825,3.591-.862-.058-.862-.058l-1.773-3.357s-2.782,7.882-3.514,9.489-1.208-.1-1.208-.1l-1.044-5.789s-1.561,1.188-2.073,1.539a.671.671,0,0,1-.895-.078l-3.68-3.669s-1.272,5.086-1.349,5.636a.56.56,0,0,1-.651.468l-2.133-.189s3.368,9.79,3.689,10.441a.8.8,0,0,1-.145,1.013l-2.367,1.922c7.85,2.732,8.345,3.636,8.274,3.777l-4.616,6.888,1.336.923,1.324-1.736Z" transform="translate(-872.883 -278.021)" fill="#fff"/>
  </g>
</svg>
