<svg id="_026-pinterest" data-name="026-pinterest" xmlns="http://www.w3.org/2000/svg" width="20.985" height="25.829" viewBox="0 0 20.985 25.829">
  <g id="Group_26" data-name="Group 26" transform="translate(0)">
    <path id="Path_21" data-name="Path 21" d="M58.848,0C51.769,0,48,4.536,48,9.483c0,2.294,1.282,5.155,3.334,6.062.312.14.481.081.551-.208.061-.22.331-1.277.462-1.776a.457.457,0,0,0-.11-.449,5.882,5.882,0,0,1-1.222-3.569c0-3.45,2.743-6.8,7.41-6.8,4.036,0,6.86,2.622,6.86,6.372,0,4.238-2.242,7.169-5.156,7.169A2.309,2.309,0,0,1,57.7,13.453c.46-1.865,1.363-3.87,1.363-5.214a2,2,0,0,0-2.073-2.2c-1.642,0-2.974,1.626-2.974,3.808a5.43,5.43,0,0,0,.491,2.323s-1.624,6.561-1.926,7.786a17.422,17.422,0,0,0,.119,5.723.17.17,0,0,0,.31.079,20.34,20.34,0,0,0,2.673-5.035c.2-.738,1.022-3.729,1.022-3.729a4.463,4.463,0,0,0,3.765,1.8c4.946,0,8.521-4.348,8.521-9.743C68.972,3.87,64.545,0,58.848,0Z" transform="translate(-48.004)" fill="rgba(255,255,255,0.8)"/>
  </g>
</svg>
