<svg xmlns="http://www.w3.org/2000/svg" width="31.637" height="81.892" viewBox="0 0 31.637 81.892">
<style type="text/css">
	.st4{fill-rule:evenodd;clip-rule:evenodd;fill:#fff;}

  #arrow_scroll_down{
  opacity: 1;
  animation-name: example;
  animation-duration: 10s;
}


/* Standard syntax */
@keyframes example {
  0% {opacity: 0; !important}
  30% {opacity: 1; !important}
    60% {opacity: 0; !important}
     90% {opacity: 1; !important}
     100% {opacity: 0; !important}
}

</style>
  <g id="scroll_icon" data-name="scroll icon" transform="translate(-944.182 -969.595)">
    <g id="mouse-clicker" transform="translate(944.182 969.595)">
      <path id="Path_16" data-name="Path 16" d="M15.818,0C7.1,0,0,7.5,0,16.71V40.1c0,9.214,7.1,16.71,15.818,16.71s15.818-7.5,15.818-16.71V16.71C31.637,7.5,24.541,0,15.818,0ZM28.41,40.1c0,7.334-5.649,13.3-12.592,13.3S3.227,47.434,3.227,40.1V16.71c0-7.334,5.649-13.3,12.592-13.3S28.41,9.376,28.41,16.71Zm0,0" fill="rgba(255,255,255,0.75)"/>
      <path id="Path_17" data-name="Path 17" d="M136.859,101.852a1.66,1.66,0,0,0-1.613,1.7V111.4a1.616,1.616,0,1,0,3.227,0v-7.844A1.66,1.66,0,0,0,136.859,101.852Zm0,0" transform="translate(-121.041 -90.55)" fill="rgba(255,255,255,0.75)"/>
    </g>
    <g id="arrow_scroll_down" data-name="arrow scroll down">
      <path id="Union_1" data-name="Union 1" d="M20.658,0,10.329,8.506ZM0,0,10.329,8.506Z" transform="translate(949.5 1042.481)" fill="none" stroke="rgba(255,255,255,0.75)" stroke-linecap="round" stroke-linejoin="round" stroke-width="1"/>
      <path id="Union_2" data-name="Union 2" d="M12.658,0,6.329,4.506ZM0,0,6.329,4.506Z" transform="translate(953.5 1039.013)" fill="none" stroke="rgba(255,255,255,0.75)" stroke-linecap="round" stroke-linejoin="round" stroke-width="1"/>
    </g>
  </g>
</svg>
