<svg id="_021-snapchat" data-name="021-snapchat" xmlns="http://www.w3.org/2000/svg" width="25.829" height="24.216" viewBox="0 0 25.829 24.216">
  <g id="Group_25" data-name="Group 25" transform="translate(0 0)">
    <path id="Path_20" data-name="Path 20" d="M25.323,34.071c-3.453-.568-5.009-4.105-5.072-4.256a.244.244,0,0,0-.015-.029,1.067,1.067,0,0,1-.121-.878c.189-.442.912-.672,1.39-.823.139-.044.27-.086.378-.128a2.923,2.923,0,0,0,1.03-.615.978.978,0,0,0,.313-.7,1.108,1.108,0,0,0-.83-.961,1.5,1.5,0,0,0-.562-.107,1.251,1.251,0,0,0-.523.107,2.936,2.936,0,0,1-1.077.307.988.988,0,0,1-.357-.077c.01-.161.019-.328.031-.5l0-.074c.111-1.748.249-3.923-.329-5.214A7.014,7.014,0,0,0,18,17.857a6.609,6.609,0,0,0-1.89-1.246,7.47,7.47,0,0,0-2.949-.623H13.1l-.444,0a7.5,7.5,0,0,0-2.953.623,6.572,6.572,0,0,0-1.884,1.245,7.037,7.037,0,0,0-1.574,2.257c-.578,1.29-.441,3.464-.331,5.211v0c.011.187.024.383.036.573a1.035,1.035,0,0,1-.423.079,2.8,2.8,0,0,1-1.151-.308,1.034,1.034,0,0,0-.437-.09,1.547,1.547,0,0,0-.773.216,1.07,1.07,0,0,0-.547.7.964.964,0,0,0,.368.906,3.175,3.175,0,0,0,.962.551c.11.044.241.084.378.128.478.152,1.2.381,1.392.823a1.075,1.075,0,0,1-.123.878.229.229,0,0,0-.013.029,8.549,8.549,0,0,1-1.3,2.012A7.3,7.3,0,0,1,2.71,33.212a5.774,5.774,0,0,1-2.2.857A.6.6,0,0,0,0,34.7a.765.765,0,0,0,.063.263v0a1.614,1.614,0,0,0,.875.747,9.992,9.992,0,0,0,2.527.657,3.065,3.065,0,0,1,.155.555c.042.194.086.394.149.605a.662.662,0,0,0,.693.5,3.372,3.372,0,0,0,.594-.082A6.756,6.756,0,0,1,6.41,37.8a5.886,5.886,0,0,1,.969.082,4.6,4.6,0,0,1,1.81.935,5.859,5.859,0,0,0,3.568,1.39q.065,0,.131,0c.052,0,.118,0,.186,0a5.868,5.868,0,0,0,3.568-1.388l0,0a4.617,4.617,0,0,1,1.81-.933,5.886,5.886,0,0,1,.969-.082,6.788,6.788,0,0,1,1.354.144,3.273,3.273,0,0,0,.594.073H21.4a.654.654,0,0,0,.664-.5c.061-.208.1-.4.149-.6a3.171,3.171,0,0,1,.153-.552,10.062,10.062,0,0,0,2.527-.657,1.62,1.62,0,0,0,.873-.746.767.767,0,0,0,.065-.266A.6.6,0,0,0,25.323,34.071Z" transform="translate(0 -15.988)" fill="rgba(255,255,255,0.8)"/>
  </g>
</svg>
