<svg id="icon_3" data-name="013-twitter-1" xmlns="http://www.w3.org/2000/svg" width="25.83" height="20.987" viewBox="0 0 25.83 20.987">

<style type="text/css">
	.st2{fill-rule:evenodd;clip-rule:evenodd;fill:#fff;}

  #icon_3:hover .st2{
    cursor:pointer !important;
    fill:#FEB32A !important;}
</style>
  <g id="Group_24" data-name="Group 24" transform="translate(0 0)">
    <path  class="st2" id="Path_19" data-name="Path 19" d="M25.83,50.485a11.041,11.041,0,0,1-3.051.836,5.266,5.266,0,0,0,2.33-2.927,10.583,10.583,0,0,1-3.358,1.282,5.3,5.3,0,0,0-9.16,3.621,5.453,5.453,0,0,0,.123,1.208A14.989,14.989,0,0,1,1.8,48.965a5.3,5.3,0,0,0,1.627,7.077,5.23,5.23,0,0,1-2.393-.652v.058a5.32,5.32,0,0,0,4.243,5.2,5.285,5.285,0,0,1-1.388.174,4.682,4.682,0,0,1-1-.09,5.346,5.346,0,0,0,4.948,3.689,10.64,10.64,0,0,1-6.566,2.259A9.917,9.917,0,0,1,0,66.611a14.908,14.908,0,0,0,8.124,2.376A14.968,14.968,0,0,0,23.2,53.918c0-.234-.008-.46-.019-.684A10.564,10.564,0,0,0,25.83,50.485Z" transform="translate(0 -48)" fill="rgba(255,255,255,0.8)"/>
  </g>
</svg>
