<svg id="_002-youtube" data-name="002-youtube" xmlns="http://www.w3.org/2000/svg" width="25.83" height="17.758" viewBox="0 0 25.83 17.758">
  <g id="Group_23" data-name="Group 23" transform="translate(0 0)">
    <path id="Path_18" data-name="Path 18" d="M24.732,81.711c-.7-1.246-1.461-1.476-3.009-1.563-1.547-.1-5.436-.149-8.8-.149s-7.266.044-8.811.147-2.307.316-3.014,1.564S0,85.1,0,88.874v.013c0,3.758.371,5.918,1.093,7.15S2.56,97.51,4.105,97.615s5.437.144,8.813.144,7.258-.053,8.806-.142c1.548-.1,2.309-.331,3.009-1.577.728-1.232,1.1-3.392,1.1-7.15v-.013C25.83,85.1,25.462,82.956,24.732,81.711ZM9.686,93.722V84.036l8.072,4.843Z" transform="translate(0 -80)" fill="rgba(255,255,255,0.8)"/>
  </g>
</svg>
